# xmcd CD database file
#
# Track frame offsets:
#	150
#	20486
#	48302
#	65625
#	98200
#	129129
#	148783
#	194994
#	228403
#	250990
#
# Disc length: 3998 seconds
#
# Revision: 0
# Processed by: cddbd v1.5.2PL0 Copyright (c) Steve Scherf et al.
# Submitted via: CDex 1.51
#
DISCID=920f9c0a
DTITLE=Aurio Corra - Alcatrazes
DYEAR=1996
DGENRE=New Age
TTITLE0=A Ilha Parte 1
TTITLE1=A Ilha Parte 2
TTITLE2=Neblina
TTITLE3=Golfinhos
TTITLE4=Gaivotas
TTITLE5=Corais
TTITLE6=Fundo Do Mar
TTITLE7=Farol
TTITLE8=Realidade
TTITLE9=Alcatrazes
EXTD=YEAR: 1996
EXTT0=
EXTT1=
EXTT2=
EXTT3=
EXTT4=
EXTT5=
EXTT6=
EXTT7=
EXTT8=
EXTT9=
PLAYORDER=
